<?xml version="1.0" standalone="no"?>
<!DOCTYPE svg PUBLIC "-//W3C//DTD SVG 20010904//EN"
 "http://www.w3.org/TR/2001/REC-SVG-20010904/DTD/svg10.dtd">
<svg version="1.0" xmlns="http://www.w3.org/2000/svg"
 width="64.000000pt" height="64.000000pt" viewBox="0 0 64.000000 64.000000"
 preserveAspectRatio="xMidYMid meet">

<g transform="translate(0.000000,64.000000) scale(0.100000,-0.100000)"
fill="#000000" stroke="none">
<path d="M222 622 c-139 -50 -233 -192 -219 -331 9 -82 60 -176 122 -223 249
-190 590 48 500 348 -49 163 -244 262 -403 206z m88 -167 c0 -23 -4 -25 -45
-25 -33 0 -45 -4 -45 -15 0 -11 11 -15 41 -15 36 0 40 -2 37 -22 -2 -19 -10
-24 -40 -26 -36 -3 -38 -5 -38 -38 0 -32 -2 -34 -35 -34 -40 0 -39 -3 -29 123
l7 77 73 0 c72 0 74 -1 74 -25z m194 9 c20 -20 20 -48 1 -64 -14 -12 -14 -15
0 -30 19 -21 19 -54 -1 -74 -11 -12 -36 -16 -92 -16 l-77 0 3 100 3 100 74 0
c54 0 78 -4 89 -16z m-368 -234 c14 -14 95 -19 118 -8 13 7 21 6 27 -3 5 -8 9
-9 9 -4 0 6 5 3 10 -5 6 -10 10 -11 10 -2 0 6 5 12 10 12 6 0 10 -9 10 -19 0
-17 -7 -19 -71 -18 -53 0 -72 4 -77 15 -4 12 -8 12 -19 -4 -11 -16 -13 -16
-13 -1 0 18 -29 13 -42 -7 -4 -6 -8 4 -8 22 0 32 16 42 36 22z m265 -22 c1
-17 2 -19 6 -5 5 20 23 23 23 5 0 -9 3 -9 9 1 11 17 45 7 39 -12 -3 -7 -25
-13 -51 -15 -36 -2 -47 1 -47 13 0 8 -5 15 -11 15 -6 0 -9 -7 -5 -15 3 -9 0
-15 -9 -15 -8 0 -15 9 -15 19 0 18 6 21 53 30 4 0 8 -9 8 -21z m129 -10 c0
-19 -2 -20 -10 -8 -9 13 -11 13 -20 0 -8 -12 -10 -11 -10 8 0 15 6 22 20 22
14 0 20 -7 20 -22z m37 2 c1 -11 -4 -20 -12 -20 -11 0 -13 14 -6 38 4 11 17
-2 18 -18z"/>
<path d="M400 420 c0 -15 7 -20 24 -20 29 0 44 19 25 31 -25 16 -49 10 -49
-11z"/>
<path d="M400 340 c0 -17 5 -21 28 -18 36 4 36 32 0 36 -23 3 -28 -1 -28 -18z"/>
</g>
</svg>
